<svg width="56" height="56" viewBox="0 0 56 56" fill="none" xmlns="http://www.w3.org/2000/svg">
<path d="M11.6314 5.6875C8.43607 5.6875 6.07173 8.48418 6.17756 11.5172C6.27912 14.4311 6.14719 18.2049 5.19708 21.2826C4.24414 24.3692 2.63247 26.3244 0 26.5755V29.4097C2.63247 29.6607 4.24414 31.616 5.19708 34.7026C6.14719 37.7802 6.27912 41.5541 6.17756 44.468C6.07173 47.5005 8.43607 50.2977 11.6319 50.2977H44.3729C47.5682 50.2977 49.9321 47.501 49.8262 44.468C49.7247 41.5541 49.8566 37.7802 50.8067 34.7026C51.7601 31.616 53.3675 29.6607 56 29.4097V26.5755C53.3675 26.3244 51.7601 24.3692 50.8067 21.2826C49.8566 18.2054 49.7247 14.4311 49.8262 11.5172C49.9321 8.48465 47.5682 5.6875 44.3729 5.6875H11.6309H11.6314ZM37.9661 33.1479C37.9661 37.3242 34.851 39.857 29.6814 39.857H20.8814C20.3572 39.857 19.9322 39.432 19.9322 38.9078V17.0773C19.9322 16.5531 20.3572 16.1282 20.8814 16.1282H29.6311C33.9417 16.1282 36.7706 18.4631 36.7706 22.048C36.7706 24.5642 34.8676 26.8171 32.443 27.2114V27.3429C35.7437 27.705 37.9661 29.9906 37.9661 33.1479ZM28.7218 19.137H23.7041V26.2243H27.9302C31.1972 26.2243 32.9987 24.9088 32.9987 22.5573C32.9987 20.3538 31.4497 19.137 28.7218 19.137ZM23.7041 29.0367V36.8472H28.9064C32.3077 36.8472 34.1097 35.4823 34.1097 32.9173C34.1097 30.3517 32.2574 29.0362 28.6877 29.0362H23.7041V29.0367Z" fill="#7E13F8"/>
<path d="M37.9661 33.1477C37.9661 37.3239 34.851 39.8567 29.6814 39.8567H20.8813C20.3571 39.8567 19.9322 39.4318 19.9322 38.9076V17.0771C19.9322 16.5529 20.3571 16.1279 20.8813 16.1279H29.6311C33.9417 16.1279 36.7706 18.4628 36.7706 22.0478C36.7706 24.564 34.8676 26.8168 32.443 27.2112V27.3426C35.7436 27.7047 37.9661 29.9903 37.9661 33.1477ZM28.7218 19.1367H23.7041V26.2241H27.9302C31.1972 26.2241 32.9987 24.9085 32.9987 22.557C32.9987 20.3536 31.4497 19.1367 28.7218 19.1367ZM23.7041 29.0364V36.847H28.9064C32.3077 36.847 34.1097 35.4821 34.1097 32.917C34.1097 30.3515 32.2574 29.0359 28.6876 29.0359H23.7041V29.0364Z" fill="white"/>
</svg>
