<svg width="56" height="56" viewBox="0 0 56 56" fill="none" xmlns="http://www.w3.org/2000/svg">
<path fill-rule="evenodd" clip-rule="evenodd" d="M7.77508 50.4018L3.28125 0H52.6612L48.1626 50.3935L27.9414 56L7.77508 50.4018Z" fill="#0071BC"/>
<path fill-rule="evenodd" clip-rule="evenodd" d="M28.0128 51.7118L44.3322 47.2223L48.1558 4.19727H28.0128V51.7118Z" fill="#29ABE2"/>
<path fill-rule="evenodd" clip-rule="evenodd" d="M13.5676 22.7147L14.109 28.8872L28.0128 22.7147V16.5322L13.5676 22.7147Z" fill="#B3B3B3"/>
<path fill-rule="evenodd" clip-rule="evenodd" d="M43.4117 9.93262L28.0128 16.5321V22.7146L42.8807 16.1051L43.4117 9.93262Z" fill="#E6E6E6"/>
<path fill-rule="evenodd" clip-rule="evenodd" d="M28.0127 38.8647L27.9649 38.8719L21.0696 37.0201L20.6192 32.0967H14.4135L15.2795 41.7961L27.9636 45.3082L28.0127 45.2966V38.8647Z" fill="#E6E6E6"/>
<path fill-rule="evenodd" clip-rule="evenodd" d="M28.0128 22.7148V28.8873H35.562L34.8758 36.9574L28.0128 38.8704V45.3017L40.6548 41.7897L42.3195 22.7148H28.0128Z" fill="white"/>
<path fill-rule="evenodd" clip-rule="evenodd" d="M28.0128 22.7148H13.5676L14.109 28.8873H28.0128V22.7148Z" fill="#E6E6E6"/>
<path fill-rule="evenodd" clip-rule="evenodd" d="M28.0127 16.1051V9.93262H27.95H12.4701L13.0179 16.1051H28.0127Z" fill="#E6E6E6"/>
<path fill-rule="evenodd" clip-rule="evenodd" d="M28.0128 9.93262V16.0277V16.1051H42.8807L43.4117 9.93262H28.0128Z" fill="white"/>
</svg>
