<svg width="56" height="56" viewBox="0 0 56 56" fill="none" xmlns="http://www.w3.org/2000/svg">
<g clip-path="url(#clip0_78_15882)">
<path d="M11.4207 44.5795L1.84032 34.9992C0.704014 33.8341 0 32.1872 0 30.5775C0 29.8323 0.419938 28.6672 0.73695 28.0002L9.58036 9.58057L11.4207 44.5795Z" fill="#01579B"/>
<path d="M44.213 11.4207L34.6326 1.84032C33.7969 1.00044 32.0553 0 30.5814 0C29.3134 0 28.0701 0.255257 27.2672 0.73695L9.58453 9.58036L44.213 11.4207Z" fill="#40C4FF"/>
<path d="M22.8414 55.9999H46.0532V46.0531L28.737 40.5239L12.8946 46.0531L22.8414 55.9999Z" fill="#40C4FF"/>
<path d="M9.58032 39.4209C9.58032 42.3769 9.95086 43.1015 11.4206 44.5795L12.8945 46.0534H46.0532L29.8444 27.6338L9.58032 9.58057V39.4209Z" fill="#29B6F6"/>
<path d="M39.0542 9.57617H9.58032L46.0532 46.049H56V23.2077L44.2088 11.4165C42.5537 9.75732 41.0839 9.57617 39.0542 9.57617Z" fill="#01579B"/>
<path opacity="0.2" d="M11.7912 44.9459C10.3173 43.4679 9.95086 42.0105 9.95086 39.4209V9.94698L9.58444 9.58057V39.4209C9.58032 42.0105 9.58032 42.7269 11.7912 44.9459L12.8945 46.0493L11.7912 44.9459Z" fill="white"/>
<path opacity="0.2" d="M55.6336 22.8413V45.6827H45.6868L46.0532 46.0532H56V23.2077L55.6336 22.8413Z" fill="#263238"/>
<path opacity="0.2" d="M44.213 11.4209C42.385 9.59292 40.8905 9.58057 38.6879 9.58057H9.58453L9.95095 9.94698H38.6879C39.7872 9.94698 42.562 9.76172 44.213 11.4209Z" fill="white"/>
<path opacity="0.2" d="M55.6336 22.8413L44.2129 11.4207L34.6326 1.84032C33.7968 1.00044 32.0553 0 30.5814 0C29.3134 0 28.07 0.255257 27.2672 0.73695L9.58451 9.58036L0.741101 28C0.424089 28.6711 0.00415039 29.8362 0.00415039 30.5773C0.00415039 32.187 0.712282 33.8297 1.84447 34.999L10.6714 43.7642C10.8814 44.0235 11.1284 44.287 11.4207 44.5793L11.7871 44.9457L12.8905 46.0491L22.4708 55.6295L22.8373 55.9959H45.6786H46.045V46.0491H55.9918V46.0244V23.2078L55.6336 22.8413Z" fill="url(#paint0_radial_78_15882)"/>
</g>
<defs>
<radialGradient id="paint0_radial_78_15882" cx="0" cy="0" r="1" gradientUnits="userSpaceOnUse" gradientTransform="translate(27.998 27.9947) scale(27.9959 27.9959)">
<stop stop-color="white" stop-opacity="0.1"/>
<stop offset="1" stop-color="white" stop-opacity="0"/>
</radialGradient>
<clipPath id="clip0_78_15882">
<rect width="56" height="56" fill="white"/>
</clipPath>
</defs>
</svg>
