<svg width="45" height="56" viewBox="0 0 45 56" fill="none" xmlns="http://www.w3.org/2000/svg">
<path d="M14.0942 54.3898C16.5226 55.3575 19.103 55.8976 21.719 55.9856C25.2376 56.1101 28.7362 55.4114 31.9314 53.9462C28.2532 52.5126 24.877 50.4123 21.9756 47.7529C20.1133 50.7072 17.3586 53.0405 14.0942 54.3898Z" fill="#FF9100"/>
<path d="M21.975 47.7536C15.4173 41.7444 11.4389 33.0468 11.7751 23.5069C11.7861 23.1974 11.8025 22.8878 11.8219 22.5783C8.90948 21.8301 5.84871 21.8617 2.95265 22.67C1.14606 25.802 0.137371 29.3231 0.0139678 32.9284C-0.325634 42.5652 5.56012 50.9854 14.0939 54.3905C17.3518 53.0412 20.1059 50.7219 21.975 47.7536Z" fill="#FFC400"/>
<path d="M21.9753 47.7534C23.4997 45.3359 24.4245 42.5017 24.5321 39.4482C24.815 31.4158 19.3652 24.5061 11.8219 22.5781C11.8028 22.8877 11.7864 23.1972 11.7754 23.5067C11.4392 33.0466 15.4173 41.7442 21.9753 47.7534Z" fill="#FF9100"/>
<path d="M23.6883 0C19.3927 3.41002 16.0002 7.90626 13.9475 13.0861C12.7449 16.1222 12.0267 19.3253 11.8185 22.5804C19.3615 24.5084 24.8116 31.4181 24.5284 39.4505C24.4273 42.3933 23.5455 45.2579 21.9718 47.7557C24.8725 50.416 28.2489 52.5163 31.9276 53.9489C39.3878 50.5323 44.6809 43.1801 44.9875 34.4839C45.186 28.8496 43.0011 23.828 39.9137 19.5894C36.6534 15.1069 23.6883 0 23.6883 0Z" fill="#DD2C00"/>
</svg>
