<svg width="48" height="56" viewBox="0 0 48 56" fill="none" xmlns="http://www.w3.org/2000/svg">
<path fill-rule="evenodd" clip-rule="evenodd" d="M4.36829 50.402L0 0H48L43.6271 50.3941L23.9706 56L4.36829 50.402Z" fill="#E44D26"/>
<path fill-rule="evenodd" clip-rule="evenodd" d="M24 51.7151L39.8833 47.1852L43.6203 4.12109H24V51.7151Z" fill="#F16529"/>
<path d="M16.0484 22.8145H24V28.996H10.5528L8.93202 10.3027H24V16.4844H15.4992L16.0484 22.8145Z" fill="#EBEBEB"/>
<path d="M23.9737 38.876L24 38.8687V45.3002L23.9723 45.3081L11.6631 41.7929L10.8213 32.0869H16.8535L17.2813 37.017L23.9737 38.876Z" fill="#EBEBEB"/>
<path d="M23.9792 10.3027H39.0321L38.494 16.4844H23.9792V10.3027Z" fill="white"/>
<path d="M23.9792 28.996V22.8145H37.9472L37.8006 24.4744L36.2982 41.7929L23.9792 45.3051V38.8739L30.6812 37.0131L31.3787 28.996H23.9792Z" fill="white"/>
</svg>
