<svg width="19" height="18" viewBox="0 0 19 18" fill="none" xmlns="http://www.w3.org/2000/svg">
<g clip-path="url(#clip0_78_15738)">
<path d="M14.004 0.274414H4.94331C2.44012 0.274414 0.403717 2.31082 0.403717 4.81401V13.1033C0.403717 15.6064 2.44012 17.6429 4.94331 17.6429H14.004C16.5072 17.6429 18.5436 15.6064 18.5436 13.1033V4.81401C18.5436 2.31082 16.5072 0.274414 14.004 0.274414ZM2.00514 4.81401C2.00514 3.19411 3.32341 1.87585 4.94331 1.87585H14.004C15.6239 1.87585 16.9422 3.19411 16.9422 4.81401V13.1033C16.9422 14.7232 15.6239 16.0414 14.004 16.0414H4.94331C3.32341 16.0414 2.00514 14.7232 2.00514 13.1033V4.81401Z" fill="#DEDEDE"/>
<path d="M9.47415 13.1805C11.8019 13.1805 13.6968 11.2867 13.6968 8.95795C13.6968 6.62917 11.803 4.73535 9.47415 4.73535C7.14538 4.73535 5.25157 6.62917 5.25157 8.95795C5.25157 11.2867 7.14538 13.1805 9.47415 13.1805ZM9.47415 6.33781C10.9196 6.33781 12.0953 7.51349 12.0953 8.95898C12.0953 10.4045 10.9196 11.5801 9.47415 11.5801C8.02868 11.5801 6.853 10.4045 6.853 8.95898C6.853 7.51349 8.02868 6.33781 9.47415 6.33781Z" fill="#DEDEDE"/>
<path d="M14.0867 5.41706C14.7135 5.41706 15.2244 4.90717 15.2244 4.27932C15.2244 3.65148 14.7145 3.1416 14.0867 3.1416C13.4588 3.1416 12.9489 3.65148 12.9489 4.27932C12.9489 4.90717 13.4588 5.41706 14.0867 5.41706Z" fill="#DEDEDE"/>
</g>
<defs>
<clipPath id="clip0_78_15738">
<rect width="18.9474" height="18" fill="white"/>
</clipPath>
</defs>
</svg>
