<svg width="56" height="56" viewBox="0 0 56 56" fill="none" xmlns="http://www.w3.org/2000/svg">
<g clip-path="url(#clip0_78_15844)">
<path fill-rule="evenodd" clip-rule="evenodd" d="M0 0H56V56H0V0Z" fill="#F7DF1E"/>
<path fill-rule="evenodd" clip-rule="evenodd" d="M14.7245 46.7977L19.01 44.2042C19.8367 45.6701 20.5888 46.9104 22.3928 46.9104C24.1221 46.9104 25.2123 46.2339 25.2123 43.6028V25.7095H30.4749V43.6772C30.4749 49.1279 27.2798 51.6089 22.6184 51.6089C18.4085 51.6089 15.9648 49.4285 14.7244 46.7973" fill="black"/>
<path fill-rule="evenodd" clip-rule="evenodd" d="M33.3333 46.2339L37.6183 43.753C38.7463 45.5951 40.2123 46.9482 42.8059 46.9482C44.9865 46.9482 46.377 45.858 46.377 44.3544C46.377 42.55 44.9486 41.9109 42.5427 40.8587L41.2274 40.2945C37.4306 38.6784 34.9119 36.6485 34.9119 32.3631C34.9119 28.4161 37.9191 25.4087 42.6181 25.4087C45.9637 25.4087 48.3695 26.5741 50.0985 29.619L46.001 32.2502C45.0988 30.6339 44.1218 29.995 42.6182 29.995C41.077 29.995 40.0995 30.9723 40.0995 32.2502C40.0995 33.829 41.077 34.4682 43.3322 35.4457L44.6477 36.0095C49.121 37.9267 51.6397 39.8812 51.6397 44.2792C51.6397 49.0159 47.9183 51.6094 42.9188 51.6094C38.0321 51.6094 34.8744 49.2789 33.3334 46.2339" fill="black"/>
</g>
<defs>
<clipPath id="clip0_78_15844">
<rect width="56" height="56" fill="white"/>
</clipPath>
</defs>
</svg>
