<svg width="19" height="18" viewBox="0 0 19 18" fill="none" xmlns="http://www.w3.org/2000/svg">
<g clip-path="url(#clip0_78_15734)">
<path d="M1.28624 3.71168C0.87386 3.3289 0.668777 2.8551 0.668777 2.29136C0.668777 1.72762 0.874957 1.23299 1.28624 0.84912C1.69863 0.466348 2.22947 0.274414 2.87986 0.274414C3.53023 0.274414 4.04024 0.466348 4.45153 0.84912C4.86392 1.23189 5.069 1.71336 5.069 2.29136C5.069 2.86936 4.86282 3.3289 4.45153 3.71168C4.03915 4.09444 3.51598 4.28638 2.87986 4.28638C2.24373 4.28638 1.69863 4.09444 1.28624 3.71168ZM4.72243 5.9074V17.6429H1.01425V5.9074H4.72243Z" fill="#DEDEDE"/>
<path d="M17.0666 7.0671C17.8749 7.94451 18.2785 9.14877 18.2785 10.682V17.436H14.7568V11.1581C14.7568 10.3848 14.5561 9.78382 14.1558 9.35604C13.7555 8.92831 13.2159 8.71335 12.5402 8.71335C11.8647 8.71335 11.325 8.92721 10.9247 9.35604C10.5243 9.78382 10.3237 10.3848 10.3237 11.1581V17.436H6.78111V5.8749H10.3237V7.40821C10.6823 6.89711 11.166 6.4935 11.7736 6.19628C12.3813 5.89905 13.0645 5.75098 13.8246 5.75098C15.178 5.75098 16.2594 6.18968 17.0666 7.0671Z" fill="#DEDEDE"/>
</g>
<defs>
<clipPath id="clip0_78_15734">
<rect width="18.9474" height="18" fill="white"/>
</clipPath>
</defs>
</svg>
