<svg width="24" height="24" viewBox="0 0 24 24" fill="none" xmlns="http://www.w3.org/2000/svg">
<path d="M2.57143 4H10.4286C10.8453 4 11.245 4.16857 11.5397 4.46863C11.8344 4.76869 12 5.17565 12 5.6C12 6.02435 11.8344 6.43131 11.5397 6.73137C11.245 7.03143 10.8453 7.2 10.4286 7.2H2.57143C2.15466 7.2 1.75496 7.03143 1.46026 6.73137C1.16556 6.43131 1 6.02435 1 5.6C1 5.17565 1.16556 4.76869 1.46026 4.46863C1.75496 4.16857 2.15466 4 2.57143 4ZM13.5714 16.8H21.4286C21.8453 16.8 22.245 16.9686 22.5397 17.2686C22.8344 17.5687 23 17.9757 23 18.4C23 18.8243 22.8344 19.2313 22.5397 19.5314C22.245 19.8314 21.8453 20 21.4286 20H13.5714C13.1547 20 12.755 19.8314 12.4603 19.5314C12.1656 19.2313 12 18.8243 12 18.4C12 17.9757 12.1656 17.5687 12.4603 17.2686C12.755 16.9686 13.1547 16.8 13.5714 16.8ZM2.57143 10.4H21.4286C21.8453 10.4 22.245 10.5686 22.5397 10.8686C22.8344 11.1687 23 11.5757 23 12C23 12.4243 22.8344 12.8313 22.5397 13.1314C22.245 13.4314 21.8453 13.6 21.4286 13.6H2.57143C2.15466 13.6 1.75496 13.4314 1.46026 13.1314C1.16556 12.8313 1 12.4243 1 12C1 11.5757 1.16556 11.1687 1.46026 10.8686C1.75496 10.5686 2.15466 10.4 2.57143 10.4Z" fill="#1E2A2E"/>
</svg>
