<svg width="68" height="56" viewBox="0 0 68 56" fill="none" xmlns="http://www.w3.org/2000/svg">
<g clip-path="url(#clip0_78_15903)">
<path fill-rule="evenodd" clip-rule="evenodd" d="M56.8825 3.96852L58.3158 5.87184C58.6921 6.37418 58.598 7.0942 58.0999 7.47375L56.5781 8.6403C56.8548 9.38265 57.0319 10.1752 57.1038 10.9846L58.8359 11.2246C59.4557 11.3083 59.8874 11.8888 59.8044 12.5139L59.4834 14.8861C59.4004 15.5112 58.8249 15.9522 58.2051 15.8629L56.3125 15.6005C55.9749 16.3429 55.5433 17.0238 55.0342 17.6322L56.0967 19.0388C56.473 19.5411 56.3734 20.2612 55.8753 20.6407L53.9883 22.0863C53.4902 22.4659 52.7764 22.3654 52.4001 21.8686L51.2435 20.3337C50.502 20.6128 49.7217 20.7914 48.9137 20.864L48.6758 22.611C48.5928 23.2361 48.0173 23.6715 47.3975 23.5878L45.0456 23.264C44.4258 23.1803 43.9941 22.5998 44.0772 21.9747L44.3372 20.0658C43.6068 19.7253 42.9261 19.29 42.3229 18.782L40.9284 19.8481C40.4303 20.2277 39.7165 20.1328 39.3402 19.6304L37.9069 17.7271C37.5306 17.2248 37.6247 16.5047 38.1227 16.1252L39.6445 14.9586C39.3678 14.2107 39.1908 13.4237 39.1188 12.6144L37.3867 12.3744C36.7669 12.2907 36.3298 11.7102 36.4183 11.085L36.7393 8.71286C36.8278 8.08772 37.3978 7.65236 38.0176 7.73608L39.9102 7.99842C40.2477 7.26165 40.6794 6.57512 41.1829 5.96672L40.126 4.56017C39.7497 4.0634 39.8438 3.34338 40.3418 2.96383L42.2288 1.5182C42.7269 1.13866 43.4408 1.23354 43.8171 1.73589L44.9736 3.27082C45.7096 2.99174 46.4954 2.81313 47.2979 2.74057L47.5358 0.993535C47.6188 0.368398 48.1943 -0.072547 48.8141 0.0111767L51.166 0.334908C51.7858 0.418632 52.223 0.999117 52.1344 1.62425L51.8744 3.53315C52.6104 3.87363 53.2855 4.30899 53.8942 4.8225L55.2887 3.75642C55.7868 3.37129 56.5007 3.46618 56.8825 3.96852ZM16.4189 37.4636V28.254H21.1227C21.9971 28.254 22.6611 28.3265 23.1204 28.4828C23.5798 28.6335 23.9561 28.9126 24.2328 29.3201C24.515 29.7331 24.6589 30.2299 24.6589 30.8159C24.6589 31.3238 24.5482 31.7704 24.3324 32.1388C24.1165 32.5127 23.8177 32.8141 23.4414 33.043C23.2035 33.1881 22.8714 33.3109 22.4508 33.4058C22.7884 33.523 23.0319 33.629 23.1813 33.7463C23.2865 33.8244 23.4359 33.9863 23.6296 34.2318C23.8232 34.4774 23.9561 34.6728 24.0225 34.8068L25.3949 37.4692H22.2074L20.7022 34.6616C20.5085 34.2988 20.3425 34.0588 20.193 33.9528C19.9883 33.8132 19.7559 33.7407 19.5013 33.7407H19.2523V37.4692H16.4189V37.4636ZM26.3688 53.4995H21.1006L20.3425 56H15.5944L21.2555 40.8237H26.3467L31.9857 56H27.1159L26.3688 53.4995ZM25.3838 50.2119L23.7402 44.7531L22.0911 50.2119H25.3838ZM33.0814 40.8237H40.8177C42.5055 40.8237 43.7673 41.2256 44.6029 42.0349C45.4385 42.8442 45.8591 43.9996 45.8591 45.4899C45.8591 47.0248 45.3997 48.2249 44.4867 49.09C43.5736 49.9552 42.1735 50.3849 40.2975 50.3849H37.7464V56H33.0814V40.8237ZM37.7464 47.3095H38.8919C39.7939 47.3095 40.4303 47.1532 40.7956 46.8351C41.1608 46.5225 41.3434 46.115 41.3434 45.6294C41.3434 45.155 41.1829 44.7476 40.8675 44.4182C40.5521 44.0889 39.9544 43.9215 39.0801 43.9215H37.7464V47.3095ZM47.7406 40.8237H52.4056V56H47.7406V40.8237ZM19.2523 31.9936H20.4421C20.5693 31.9936 20.8184 31.949 21.1891 31.8653C21.3773 31.8262 21.5322 31.7313 21.6484 31.575C21.7702 31.4187 21.8255 31.2401 21.8255 31.0392C21.8255 30.7434 21.7314 30.5089 21.5433 30.3527C21.3551 30.1908 21.0065 30.1126 20.4919 30.1126H19.2523V31.9936ZM25.9372 28.254H33.4909V30.2187H28.7705V31.6866H33.1478V33.5621H28.7705V35.3761H33.6292V37.458H25.9372V28.254ZM34.2988 34.416L36.9772 34.2486C37.0326 34.6895 37.1543 35.0189 37.3314 35.2477C37.6247 35.6161 38.0397 35.8059 38.5765 35.8059C38.9749 35.8059 39.2904 35.711 39.5062 35.5212C39.722 35.3314 39.8327 35.1082 39.8327 34.857C39.8327 34.617 39.7275 34.4049 39.5228 34.2151C39.318 34.0253 38.8366 33.8523 38.0785 33.6793C36.8444 33.4002 35.9645 33.0262 35.4333 32.563C34.902 32.0997 34.6364 31.508 34.6364 30.788C34.6364 30.3136 34.7747 29.8671 35.0459 29.4484C35.3171 29.0298 35.7266 28.6949 36.2744 28.4549C36.8223 28.2149 37.5693 28.0977 38.5212 28.0977C39.6888 28.0977 40.5742 28.3154 41.1885 28.7563C41.7972 29.1973 42.1624 29.8894 42.2786 30.8494L39.6279 31.0113C39.556 30.5927 39.4066 30.2857 39.1852 30.1015C38.9583 29.9117 38.6429 29.8168 38.25 29.8168C37.9235 29.8168 37.6745 29.8894 37.5085 30.0289C37.3424 30.1685 37.2594 30.3415 37.2594 30.5424C37.2594 30.6875 37.3314 30.8159 37.4642 30.9387C37.597 31.0559 37.9069 31.1731 38.405 31.2792C39.639 31.5471 40.5244 31.8206 41.0557 32.0941C41.5869 32.3676 41.9798 32.7081 42.2178 33.1155C42.4613 33.5174 42.583 33.9751 42.583 34.4774C42.583 35.0691 42.4225 35.6105 42.096 36.1073C41.7751 36.604 41.3213 36.9836 40.7402 37.2403C40.1592 37.4971 39.4287 37.6255 38.5433 37.6255C36.9938 37.6255 35.9147 37.324 35.3171 36.7212C34.7194 36.1073 34.3818 35.3426 34.2988 34.416ZM42.9925 28.254H51.5755V30.5313H48.6979V37.4636H45.8757V30.5313H42.9925V28.254ZM33.4964 6.39651C32.4837 6.31836 31.46 6.32953 30.4473 6.43C27.3317 6.7314 24.3047 7.87562 21.8034 9.83476C18.9092 12.0953 16.7122 15.4777 15.8656 19.9597L15.5999 21.3607L14.2165 21.6063C12.8607 21.8463 11.6488 22.1756 10.5863 22.5943C9.55697 22.9961 8.63835 23.4929 7.83594 24.079C7.19401 24.5478 6.64063 25.0725 6.17025 25.6418C4.71485 27.4 4.03972 29.6047 4.05632 31.8374C4.07292 34.1035 4.80339 36.3919 6.15365 38.2729C6.65723 38.9706 7.23828 39.6125 7.90235 40.1707C8.57748 40.7344 9.33561 41.2032 10.1878 41.5549C10.6693 41.7558 11.1839 41.9233 11.7207 42.0572V46.2378C10.6139 46.0369 9.59571 45.7355 8.64388 45.3392C7.3877 44.8145 6.27539 44.1392 5.2959 43.3131C4.36621 42.5317 3.55274 41.6442 2.86101 40.6786C1.01823 38.111 0.0221379 34.9742 2.53069e-06 31.8485C-0.0221329 28.6893 0.951825 25.5469 3.05469 23.0017C3.73535 22.1756 4.53776 21.4165 5.45638 20.7467C6.52442 19.9653 7.7474 19.3067 9.13086 18.7653C10.0827 18.3913 11.1009 18.0788 12.1745 17.8276C13.3919 12.9493 15.9873 9.19288 19.3242 6.58628C22.4453 4.14713 26.2028 2.72383 30.071 2.34986C32.1019 2.1545 34.1605 2.24381 36.1748 2.62336C36.1305 2.80755 36.0918 2.99174 36.0697 3.18151L36.0641 3.215C36.0254 3.53315 36.0088 3.8513 36.0254 4.17504C35.5993 4.34248 35.2009 4.57133 34.8411 4.85041L34.8246 4.86157C34.2878 5.26903 33.834 5.79369 33.4964 6.39651ZM62.776 17.1131C63.0859 17.3978 63.3848 17.6936 63.6781 18.0118C64.2702 18.6537 64.8291 19.3793 65.3548 20.1886C67.1257 22.9347 68.0332 26.6018 67.9945 30.1908C67.9557 33.7128 67.015 37.218 65.0892 39.7967C63.833 41.4767 62.2227 42.8498 60.2913 43.9382C58.9688 44.6862 57.4801 45.3057 55.8587 45.808V41.4823C56.7331 41.153 57.5466 40.7846 58.2936 40.366C59.749 39.5455 60.9388 38.5464 61.8298 37.3464C63.2132 35.4877 63.8939 32.8588 63.9216 30.1629C63.9548 27.333 63.2686 24.492 61.9349 22.4268C61.5531 21.8296 61.1325 21.2937 60.6898 20.8137C60.5182 20.6295 60.3467 20.4565 60.1696 20.2891C60.1973 20.01 60.2083 19.7253 60.1917 19.4407C60.6178 19.2732 61.0163 19.0444 61.376 18.7653L61.3926 18.7541C61.9626 18.3132 62.4385 17.755 62.776 17.1131ZM48.7422 7.14444C51.2933 7.49608 53.0752 9.86825 52.7266 12.4414C52.3779 15.0145 50.026 16.8173 47.4749 16.4657C44.9238 16.114 43.1364 13.7419 43.4906 11.1688C43.8447 8.59565 46.1911 6.7928 48.7422 7.14444Z" fill="#1862FF"/>
</g>
<defs>
<clipPath id="clip0_78_15903">
<rect width="68" height="56" fill="white"/>
</clipPath>
</defs>
</svg>
