<svg width="60" height="60" viewBox="0 0 60 60" fill="none" xmlns="http://www.w3.org/2000/svg">
<path d="M56.6505 16.4481C56.6852 15.9595 56.6852 15.4691 56.6505 14.9805L59.5811 12.0564C59.8039 11.8341 59.947 11.5445 59.9882 11.2325C60.0294 10.9205 59.9664 10.6036 59.809 10.3311L56.9518 5.3832C56.7946 5.11048 56.5515 4.89741 56.2606 4.77714C55.9697 4.65687 55.6472 4.63615 55.3432 4.71821L51.3393 5.79615C50.9336 5.52375 50.5113 5.27681 50.0749 5.05675L49.0091 1.06027C48.928 0.756168 48.7487 0.48737 48.4991 0.295638C48.2495 0.103906 47.9436 -2.32177e-05 47.6289 5.81639e-09H41.9146C41.5999 -2.83875e-05 41.2939 0.103898 41.0444 0.29563C40.7948 0.487362 40.6155 0.756164 40.5344 1.06027L39.4691 5.05673C39.0327 5.27679 38.6104 5.52373 38.2046 5.79613L34.2002 4.71819C33.8963 4.63666 33.574 4.65763 33.2832 4.77785C32.9923 4.89807 32.7493 5.11083 32.5917 5.38318L29.7345 10.3311C29.5771 10.6036 29.5141 10.9205 29.5553 11.2325C29.5965 11.5445 29.7396 11.8341 29.9624 12.0564L32.8935 14.9805C32.8582 15.469 32.8582 15.9595 32.8935 16.4481L29.9624 19.3722C29.7396 19.5945 29.5965 19.8841 29.5553 20.1961C29.5141 20.5081 29.5771 20.825 29.7345 21.0975L32.5917 26.0454C32.7487 26.3184 32.9916 26.5317 33.2826 26.652C33.5737 26.7723 33.8963 26.7928 34.2002 26.7104L38.2046 25.6324C38.6104 25.9048 39.0326 26.1518 39.469 26.3718L40.5344 30.3683C40.6155 30.6724 40.7948 30.9412 41.0444 31.1329C41.2939 31.3247 41.5999 31.4286 41.9146 31.4286H47.6289C47.9436 31.4286 48.2495 31.3247 48.4991 31.1329C48.7487 30.9412 48.928 30.6724 49.0091 30.3683L50.0749 26.3718C50.5113 26.1518 50.9336 25.9048 51.3393 25.6324L55.3432 26.7104C55.6471 26.7933 55.97 26.7731 56.2611 26.6527C56.5523 26.5323 56.7952 26.3187 56.9518 26.0454L59.8089 21.0975C59.9664 20.825 60.0294 20.5081 59.9882 20.1961C59.947 19.8841 59.8039 19.5945 59.5811 19.3722L56.6505 16.4481ZM44.7717 20.9524C43.7357 20.9524 42.723 20.6452 41.8616 20.0696C41.0002 19.494 40.3288 18.676 39.9324 17.7188C39.5359 16.7617 39.4322 15.7085 39.6343 14.6924C39.8364 13.6763 40.3353 12.743 41.0679 12.0104C41.8004 11.2778 42.7338 10.779 43.7498 10.5768C44.7659 10.3747 45.8191 10.4785 46.7763 10.8749C47.7334 11.2714 48.5515 11.9428 49.1271 12.8042C49.7026 13.6656 50.0098 14.6783 50.0098 15.7143C50.0082 17.103 49.4558 18.4344 48.4738 19.4164C47.4918 20.3983 46.1605 20.9507 44.7717 20.9524Z" fill="#0099FF"/>
<path d="M18.448 34.8242C17.2361 34.8241 16.0514 35.1834 15.0438 35.8566C14.0361 36.5298 13.2507 37.4867 12.7869 38.6063C12.323 39.7259 12.2016 40.9579 12.438 42.1465C12.6744 43.3351 13.2579 44.4269 14.1148 45.2839C14.9717 46.1408 16.0634 46.7245 17.252 46.9609C18.4406 47.1974 19.6726 47.0761 20.7922 46.6123C21.9119 46.1486 22.8688 45.3632 23.5421 44.3556C24.2154 43.348 24.5748 42.1633 24.5748 40.9514C24.573 39.327 23.9269 37.7697 22.7783 36.621C21.6297 35.4723 20.0724 34.8261 18.448 34.8242ZM18.448 44.2215C17.8012 44.2216 17.1689 44.0299 16.6311 43.6706C16.0933 43.3114 15.6741 42.8007 15.4265 42.2032C15.1789 41.6057 15.1141 40.9481 15.2402 40.3138C15.3664 39.6794 15.6778 39.0967 16.1351 38.6393C16.5924 38.1819 17.1751 37.8704 17.8094 37.7442C18.4438 37.618 19.1013 37.6827 19.6988 37.9302C20.2964 38.1777 20.8071 38.5969 21.1665 39.1346C21.5258 39.6724 21.7176 40.3047 21.7176 40.9514C21.7167 41.8183 21.3719 42.6495 20.7589 43.2625C20.146 43.8755 19.3149 44.2204 18.448 44.2215Z" fill="white"/>
<path d="M36.7062 34.4796L33.1826 28.3766C33.0257 28.1037 32.7828 27.8904 32.4919 27.7701C32.201 27.6498 31.8784 27.6292 31.5745 27.7116L26.4876 29.0806C25.9196 28.6907 25.3243 28.3423 24.7061 28.038L23.3529 22.9646C23.2718 22.6605 23.0925 22.3916 22.8429 22.1999C22.5933 22.0082 22.2874 21.9043 21.9726 21.9043H14.9251C14.6104 21.9043 14.3044 22.0082 14.0548 22.1999C13.8053 22.3917 13.626 22.6605 13.5449 22.9646L12.1921 28.038C11.5738 28.3423 10.9783 28.6907 10.4101 29.0806L5.32362 27.7116C5.01977 27.6296 4.69733 27.6504 4.4065 27.7706C4.11566 27.8909 3.87274 28.1039 3.71555 28.3766L0.191548 34.4796C0.0341043 34.7521 -0.0289112 35.069 0.012296 35.381C0.0535032 35.693 0.196625 35.9826 0.419414 36.2049L4.14287 39.9195C4.08526 40.6066 4.08526 41.2972 4.14287 41.9843L0.419414 45.6989C0.196626 45.9212 0.0535044 46.2109 0.0122972 46.5228C-0.02891 46.8348 0.0341051 47.1517 0.191548 47.4242L3.71555 53.5273C3.87271 53.7999 4.11563 54.013 4.40647 54.1333C4.69732 54.2535 5.01977 54.2743 5.32362 54.1922L10.4101 52.8232C10.9783 53.2131 11.5738 53.5616 12.1921 53.8658L13.5449 58.9393C13.626 59.2434 13.8053 59.5122 14.0548 59.7039C14.3044 59.8956 14.6104 59.9996 14.9251 59.9995H21.9726C22.2873 59.9996 22.5933 59.8956 22.8429 59.7039C23.0925 59.5122 23.2717 59.2434 23.3528 58.9393L24.7061 53.8658C25.3242 53.5616 25.9196 53.2131 26.4876 52.8232L31.5745 54.1922C31.8784 54.2745 32.2009 54.2538 32.4918 54.1335C32.7827 54.0132 33.0256 53.8001 33.1826 53.5273L36.7062 47.4242C36.8636 47.1517 36.9266 46.8348 36.8854 46.5228C36.8442 46.2109 36.7011 45.9212 36.4783 45.6989L32.7553 41.9843C32.8122 41.2972 32.8122 40.6066 32.7553 39.9195L36.4783 36.2049C36.7011 35.9826 36.8442 35.693 36.8854 35.381C36.9266 35.069 36.8636 34.7521 36.7062 34.4796ZM30.2566 38.3766C30.103 38.5297 29.9863 38.7159 29.9154 38.9208C29.8445 39.1258 29.8212 39.3443 29.8474 39.5596C29.9717 40.4837 29.9717 41.4202 29.8474 42.3442C29.8212 42.5595 29.8445 42.778 29.9154 42.983C29.9863 43.188 30.103 43.3741 30.2566 43.5273L33.6835 46.9462L31.2569 51.1482L26.5764 49.8889C26.3667 49.8321 26.1468 49.824 25.9336 49.8653C25.7203 49.9066 25.5193 49.9961 25.3459 50.127C24.6042 50.6915 23.7964 51.1634 22.9403 51.5323C22.7406 51.6175 22.5628 51.747 22.4205 51.911C22.2783 52.0751 22.1752 52.2693 22.1191 52.4791L20.8751 57.1424H16.0226L14.7791 52.4791C14.723 52.2692 14.6199 52.0749 14.4775 51.9108C14.3352 51.7467 14.1573 51.6173 13.9574 51.5323C13.1014 51.1633 12.2936 50.6913 11.5518 50.127C11.3783 49.9963 11.1773 49.9069 10.9641 49.8656C10.7508 49.8243 10.531 49.8323 10.3213 49.8889L5.64077 51.1482L3.21471 46.9462L6.64105 43.5273C6.79447 43.3742 6.91105 43.1882 6.98195 42.9834C7.05285 42.7786 7.07621 42.5603 7.05027 42.3451C6.92581 41.4205 6.92581 40.4833 7.05027 39.5587C7.07621 39.3435 7.05285 39.1253 6.98195 38.9205C6.91105 38.7157 6.79447 38.5297 6.64105 38.3766L3.21471 34.9577L5.64077 30.7557L10.3213 32.015C10.531 32.072 10.7509 32.0802 10.9642 32.0389C11.1775 31.9976 11.3785 31.908 11.5518 31.7769C12.2936 31.2125 13.1014 30.7406 13.9574 30.3716C14.1573 30.2866 14.3352 30.1571 14.4776 29.9931C14.6199 29.829 14.7231 29.6347 14.7791 29.4248L16.0226 24.7614H20.8751L22.1191 29.4248C22.1751 29.6345 22.2782 29.8288 22.4205 29.9929C22.5628 30.1569 22.7405 30.2864 22.9403 30.3716C23.7963 30.7405 24.6041 31.2124 25.3459 31.7769C25.519 31.9084 25.72 31.9982 25.9334 32.0395C26.1467 32.0808 26.3668 32.0724 26.5764 32.015L31.2569 30.7557L33.6835 34.9577L30.2566 38.3766Z" fill="white"/>
<path d="M52.897 30.4812C52.5194 30.4509 52.1453 30.5713 51.8564 30.8163C51.5675 31.0612 51.3873 31.4105 51.3554 31.7879C51.0391 35.7435 49.6246 39.5321 47.2713 42.7272C44.918 45.9222 41.7193 48.3967 38.0356 49.872C37.6848 50.0145 37.4049 50.2904 37.2574 50.6392C37.1099 50.9879 37.1069 51.3809 37.249 51.7319C37.391 52.0829 37.6667 52.3631 38.0152 52.511C38.3638 52.659 38.7568 52.6625 39.108 52.5208C43.283 50.8481 46.9081 48.043 49.5751 44.4214C52.242 40.7999 53.8449 36.5056 54.2032 32.0223C54.2341 31.6447 54.1139 31.2704 53.869 30.9814C53.6241 30.6924 53.2745 30.5125 52.897 30.4812Z" fill="white"/>
<path d="M7.50597 25.6691C7.87294 25.7631 8.26221 25.7077 8.58837 25.515C8.91452 25.3223 9.15091 25.0081 9.24565 24.6413C10.3344 20.4933 12.6356 16.7642 15.855 13.931C19.0744 11.0977 23.0658 9.28913 27.3186 8.73642C27.6945 8.68956 28.0364 8.49528 28.2691 8.19632C28.5017 7.89736 28.6061 7.51822 28.5593 7.1423C28.5124 6.76638 28.3181 6.42448 28.0192 6.1918C27.7202 5.95912 27.3411 5.85474 26.9651 5.9016C22.1445 6.52783 17.6203 8.57767 13.9709 11.789C10.3215 15.0003 7.71294 19.2271 6.47871 23.929C6.38425 24.2959 6.4394 24.6854 6.63204 25.0117C6.82468 25.338 7.13903 25.5745 7.50597 25.6691Z" fill="white"/>
</svg>
