<svg width="60" height="60" viewBox="0 0 60 60" fill="none" xmlns="http://www.w3.org/2000/svg">
<path d="M27.5161 0.646033C23.2183 1.13669 19.1633 2.89351 15.8659 5.6934C12.5686 8.49329 10.1777 12.2099 8.99684 16.3714C7.816 20.5328 7.8985 24.9513 9.23385 29.0657C10.5692 33.1802 13.0972 36.805 16.4968 39.4798C16.644 39.5959 16.8128 39.6819 16.9933 39.7327C17.1738 39.7836 17.3626 39.7985 17.5488 39.7764C17.7351 39.7543 17.9151 39.6958 18.0787 39.6041C18.2424 39.5125 18.3863 39.3895 18.5024 39.2422C18.6185 39.0949 18.7045 38.9262 18.7554 38.7457C18.8062 38.5651 18.8211 38.3764 18.799 38.1901C18.7769 38.0039 18.7184 37.8238 18.6267 37.6602C18.5351 37.4966 18.4121 37.3526 18.2648 37.2365C15.1662 34.7982 12.9042 31.4551 11.7932 27.6719C10.6823 23.8887 10.7776 19.8534 12.0659 16.1268C13.3542 12.4003 15.7716 9.16771 18.9819 6.87843C22.1922 4.58915 26.036 3.35692 29.9789 3.35302C33.9218 3.34912 37.7681 4.57374 40.9829 6.85666C44.1977 9.13958 46.6214 12.3674 47.9171 16.0913C49.2128 19.8153 49.3161 23.8505 48.2127 27.6359C47.1092 31.4213 44.8538 34.7688 41.76 37.2133C41.4637 37.4486 41.2729 37.792 41.2294 38.1679C41.1859 38.5438 41.2933 38.9216 41.5281 39.2184C41.7628 39.5152 42.1057 39.7068 42.4815 39.7511C42.8574 39.7954 43.2354 39.6888 43.5327 39.4547C47.2574 36.512 49.9211 32.4352 51.1201 27.8424C52.3192 23.2495 51.9882 18.3909 50.1773 14.003C48.3664 9.61519 45.1744 5.93736 41.085 3.52702C36.9957 1.11668 32.232 0.105246 27.5161 0.646033Z" fill="white"/>
<path d="M36.1898 13.8398C34.9273 13.8413 33.7169 14.3435 32.8242 15.2362C31.9315 16.1289 31.4293 17.3393 31.4279 18.6018V20.5065H28.5707V18.6018C28.5707 17.6599 28.2914 16.7393 27.7682 15.9562C27.2449 15.1731 26.5012 14.5627 25.6311 14.2023C24.761 13.8419 23.8035 13.7476 22.8798 13.9313C21.9561 14.1151 21.1076 14.5686 20.4416 15.2346C19.7756 15.9005 19.3221 16.749 19.1384 17.6728C18.9546 18.5965 19.0489 19.5539 19.4094 20.4241C19.7698 21.2942 20.3801 22.0379 21.1632 22.5612C21.9463 23.0844 22.867 23.3637 23.8088 23.3637H25.7136V38.1256C25.7136 38.5045 25.8641 38.8679 26.132 39.1358C26.3999 39.4037 26.7633 39.5542 27.1421 39.5542C27.521 39.5542 27.8844 39.4037 28.1523 39.1358C28.4202 38.8679 28.5707 38.5045 28.5707 38.1256V23.3637H31.4279V38.1256C31.4279 38.5045 31.5784 38.8679 31.8463 39.1358C32.1142 39.4037 32.4776 39.5542 32.8564 39.5542C33.2353 39.5542 33.5987 39.4037 33.8666 39.1358C34.1345 38.8679 34.285 38.5045 34.285 38.1256V23.3637H36.1898C37.4527 23.3637 38.6639 22.862 39.557 21.9689C40.45 21.0759 40.9517 19.8647 40.9517 18.6018C40.9517 17.3388 40.45 16.1276 39.557 15.2346C38.6639 14.3415 37.4527 13.8398 36.1898 13.8398ZM21.904 18.6018C21.904 18.0966 22.1047 17.6121 22.4619 17.2549C22.8191 16.8977 23.3036 16.697 23.8088 16.697C24.314 16.697 24.7985 16.8977 25.1557 17.2549C25.5129 17.6121 25.7136 18.0966 25.7136 18.6018V20.5065H23.8088C23.3038 20.506 22.8196 20.3052 22.4625 19.9481C22.1054 19.591 21.9045 19.1068 21.904 18.6018ZM36.1898 20.5065H34.285V18.6018C34.285 18.225 34.3967 17.8568 34.606 17.5435C34.8153 17.2303 35.1128 16.9862 35.4609 16.842C35.8089 16.6978 36.1919 16.6601 36.5614 16.7336C36.9309 16.8071 37.2703 16.9885 37.5367 17.2549C37.803 17.5213 37.9845 17.8607 38.0579 18.2302C38.1314 18.5996 38.0937 18.9826 37.9496 19.3307C37.8054 19.6787 37.5612 19.9762 37.248 20.1855C36.9348 20.3948 36.5665 20.5065 36.1898 20.5065Z" fill="white"/>
<path d="M4.28573 21.4609H1.42858C1.04969 21.4609 0.68633 21.6114 0.41842 21.8794C0.15051 22.1473 0 22.5106 0 22.8895C0 23.2684 0.15051 23.6318 0.41842 23.8997C0.68633 24.1676 1.04969 24.3181 1.42858 24.3181H4.28573C4.66461 24.3181 5.02797 24.1676 5.29588 23.8997C5.56379 23.6318 5.7143 23.2684 5.7143 22.8895C5.7143 22.5106 5.56379 22.1473 5.29588 21.8794C5.02797 21.6114 4.66461 21.4609 4.28573 21.4609Z" fill="white"/>
<path d="M58.5709 20.5078H55.7137C55.3348 20.5078 54.9715 20.6583 54.7036 20.9262C54.4357 21.1941 54.2852 21.5575 54.2852 21.9364C54.2852 22.3153 54.4357 22.6786 54.7036 22.9465C54.9715 23.2145 55.3348 23.365 55.7137 23.365H58.5709C58.9498 23.365 59.3131 23.2145 59.581 22.9465C59.8489 22.6786 59.9995 22.3153 59.9995 21.9364C59.9995 21.5575 59.8489 21.1941 59.581 20.9262C59.3131 20.6583 58.9498 20.5078 58.5709 20.5078Z" fill="white"/>
<path d="M11.144 39.922L9.12348 41.9421C8.99041 42.0747 8.88479 42.2322 8.81266 42.4056C8.74053 42.579 8.70331 42.7649 8.70313 42.9528C8.70294 43.1406 8.7398 43.3266 8.81159 43.5001C8.88338 43.6737 8.98869 43.8314 9.1215 43.9642C9.25431 44.097 9.412 44.2023 9.58556 44.2741C9.75912 44.3459 9.94513 44.3828 10.1329 44.3826C10.3208 44.3824 10.5067 44.3452 10.6801 44.273C10.8535 44.2009 11.011 44.0953 11.1436 43.9622L13.1641 41.9421C13.2968 41.8095 13.402 41.652 13.4738 41.4787C13.5456 41.3054 13.5825 41.1197 13.5825 40.9321C13.5825 40.7445 13.5456 40.5588 13.4738 40.3855C13.402 40.2121 13.2968 40.0547 13.1641 39.922C13.0315 39.7894 12.874 39.6842 12.7007 39.6124C12.5274 39.5406 12.3417 39.5037 12.1541 39.5037C11.9665 39.5037 11.7808 39.5406 11.6075 39.6124C11.4341 39.6842 11.2767 39.7894 11.144 39.922Z" fill="white"/>
<path d="M48.8564 4.45903L50.877 2.43847C51.1449 2.17059 51.2954 1.80727 51.2954 1.42843C51.2954 1.04959 51.1449 0.68626 50.877 0.418378C50.6091 0.150496 50.2458 8.93037e-07 49.867 0C49.4881 -8.93029e-07 49.1248 0.150492 48.8569 0.418373L46.8363 2.4389C46.7037 2.57154 46.5985 2.72901 46.5267 2.90232C46.4549 3.07562 46.418 3.26137 46.418 3.44895C46.418 3.82779 46.5685 4.19112 46.8363 4.459C47.1042 4.72688 47.4676 4.87737 47.8464 4.87737C48.2252 4.87737 48.5886 4.72688 48.8564 4.45899V4.45903Z" fill="white"/>
<path d="M10.4702 4.45903C10.6028 4.59167 10.7603 4.69689 10.9336 4.76867C11.1069 4.84046 11.2927 4.8774 11.4802 4.8774C11.6678 4.8774 11.8536 4.84045 12.0269 4.76866C12.2002 4.69687 12.3577 4.59166 12.4903 4.45901C12.6229 4.32637 12.7282 4.1689 12.7999 3.99559C12.8717 3.82229 12.9087 3.63654 12.9087 3.44895C12.9087 3.26137 12.8717 3.07562 12.7999 2.90232C12.7281 2.72901 12.6229 2.57154 12.4903 2.4389L10.4697 0.418373C10.3371 0.285732 10.1796 0.180516 10.0063 0.108731C9.833 0.0369464 9.64725 -4.42181e-07 9.45967 0C9.08083 8.93037e-07 8.7175 0.150496 8.44962 0.418378C8.18174 0.68626 8.03125 1.04959 8.03125 1.42843C8.03125 1.80727 8.18175 2.17059 8.44963 2.43847L10.4702 4.45903Z" fill="white"/>
<path d="M49.5283 39.2485C49.2604 38.9806 48.8971 38.8301 48.5183 38.8301C48.1394 38.8301 47.7761 38.9806 47.5082 39.2485C47.2403 39.5163 47.0898 39.8797 47.0898 40.2585C47.0898 40.6373 47.2403 41.0007 47.5082 41.2686L49.5288 43.2886C49.6613 43.4217 49.8188 43.5273 49.9922 43.5995C50.1656 43.6716 50.3516 43.7088 50.5394 43.709C50.7272 43.7092 50.9132 43.6723 51.0868 43.6005C51.2603 43.5287 51.418 43.4234 51.5509 43.2906C51.6837 43.1578 51.789 43.0001 51.8608 42.8266C51.9326 42.653 51.9694 42.467 51.9692 42.2792C51.969 42.0914 51.9318 41.9054 51.8597 41.732C51.7876 41.5586 51.6819 41.4011 51.5489 41.2686L49.5283 39.2485Z" fill="white"/>
<path d="M41.8027 42.4121H17.9931C15.8892 42.4121 14.1836 44.1177 14.1836 46.2216C14.1836 48.3256 15.8892 50.0312 17.9931 50.0312H41.8027C43.9067 50.0312 45.6122 48.3256 45.6122 46.2216C45.6122 44.1177 43.9067 42.4121 41.8027 42.4121Z" fill="#0099FF"/>
<path d="M20.0039 53.332C20.0039 55.1001 20.7063 56.7958 21.9565 58.0461C23.2068 59.2963 24.9025 59.9987 26.6706 59.9987H33.3373C35.1054 59.9987 36.8011 59.2963 38.0513 58.0461C39.3016 56.7958 40.004 55.1001 40.004 53.332H20.0039Z" fill="#0099FF"/>
</svg>
