<svg width="60" height="60" viewBox="0 0 60 60" fill="none" xmlns="http://www.w3.org/2000/svg">
<path d="M55.7161 0H34.7638C34.1323 0 33.5267 0.25085 33.0802 0.697365C32.6337 1.14388 32.3828 1.74948 32.3828 2.38095V8.09524C32.3828 8.47412 32.5333 8.83748 32.8012 9.10539C33.0691 9.3733 33.4325 9.52381 33.8114 9.52381H35.7161C36.8528 9.52381 37.9429 9.97534 38.7466 10.7791C39.5503 11.5828 40.0019 12.6729 40.0019 13.8095C40.0019 14.9462 39.5503 16.0363 38.7466 16.84C37.9429 17.6437 36.8528 18.0952 35.7161 18.0952H33.8114C33.4325 18.0952 33.0691 18.2457 32.8012 18.5137C32.5333 18.7816 32.3828 19.1449 32.3828 19.5238V25.2381C32.3828 25.8696 32.6337 26.4752 33.0802 26.9217C33.5267 27.3682 34.1323 27.619 34.7638 27.619H40.9542V28.8135C40.9315 30.1424 41.4 31.4331 42.2698 32.4381C43.1396 33.4431 44.3497 34.0918 45.6682 34.26C46.3965 34.3323 47.1318 34.2513 47.8269 34.0223C48.522 33.7934 49.1614 33.4214 49.7042 32.9305C50.2469 32.4396 50.6809 31.8405 50.9782 31.1717C51.2755 30.503 51.4295 29.7795 51.4304 29.0476V27.619H57.6209C58.2524 27.619 58.858 27.3682 59.3045 26.9217C59.751 26.4752 60.0019 25.8696 60.0019 25.2381V4.28571C60.0019 3.14907 59.5503 2.05898 58.7466 1.25526C57.9429 0.451529 56.8528 0 55.7161 0Z" fill="#0099FF"/>
<path d="M4.28571 60H40.4762C41.6125 59.9988 42.7018 59.5468 43.5053 58.7434C44.3087 57.9399 44.7607 56.8506 44.7619 55.7143V38.5714C44.7613 37.9401 44.5103 37.3349 44.0639 36.8885C43.6175 36.4421 43.0122 36.1911 42.381 36.1905H37.619C36.9878 36.1911 36.3825 36.4421 35.9361 36.8885C35.4897 37.3349 35.2387 37.9401 35.2381 38.5714V39.5238C35.2381 40.1553 34.9872 40.7609 34.5407 41.2074C34.0942 41.6539 33.4886 41.9048 32.8571 41.9048C32.2257 41.9048 31.6201 41.6539 31.1736 41.2074C30.727 40.7609 30.4762 40.1553 30.4762 39.5238V38.5714C30.4756 37.9401 30.2246 37.3349 29.7782 36.8885C29.3318 36.4421 28.7265 36.1911 28.0952 36.1905H23.8095V32.381H24.2857C25.6749 32.381 27.0073 31.8291 27.9896 30.8468C28.9719 29.8644 29.5238 28.5321 29.5238 27.1429C29.5238 25.7536 28.9719 24.4213 27.9896 23.439C27.0073 22.4566 25.6749 21.9048 24.2857 21.9048H23.8095V17.6191C23.8089 16.9878 23.5579 16.3825 23.1115 15.9361C22.6651 15.4897 22.0599 15.2387 21.4286 15.2381H4.28571C3.14945 15.2393 2.06008 15.6913 1.25662 16.4947C0.453165 17.2982 0.00123776 18.3876 0 19.5238V55.7143C0.00123776 56.8506 0.453165 57.9399 1.25662 58.7434C2.06008 59.5468 3.14945 59.9988 4.28571 60ZM27.619 39.0476V39.5238C27.619 40.913 28.1709 42.2454 29.1532 43.2277C30.1356 44.21 31.4679 44.7619 32.8571 44.7619C34.2464 44.7619 35.5787 44.21 36.561 43.2277C37.5434 42.2454 38.0952 40.913 38.0952 39.5238V39.0476H41.9048V55.7143C41.9044 56.093 41.7537 56.4562 41.4859 56.724C41.2181 56.9918 40.8549 57.1424 40.4762 57.1429H23.8095V52.8571C23.8089 52.2259 23.5579 51.6206 23.1115 51.1742C22.6651 50.7278 22.0599 50.4768 21.4286 50.4762H20.4762C19.8447 50.4762 19.2391 50.2253 18.7926 49.7788C18.3461 49.3323 18.0952 48.7267 18.0952 48.0952C18.0952 47.4638 18.3461 46.8582 18.7926 46.4117C19.2391 45.9651 19.8447 45.7143 20.4762 45.7143H21.4286C22.0599 45.7137 22.6651 45.4627 23.1115 45.0163C23.5579 44.5699 23.8089 43.9646 23.8095 43.3333V39.0476H27.619ZM2.85714 19.5238C2.85756 19.1451 3.0082 18.7819 3.27602 18.5141C3.54384 18.2463 3.90696 18.0957 4.28571 18.0952H20.9524V22.381C20.953 23.0122 21.204 23.6175 21.6504 24.0639C22.0968 24.5103 22.702 24.7613 23.3333 24.7619H24.2857C24.9172 24.7619 25.5228 25.0128 25.9693 25.4593C26.4158 25.9058 26.6667 26.5114 26.6667 27.1429C26.6667 27.7743 26.4158 28.3799 25.9693 28.8264C25.5228 29.273 24.9172 29.5238 24.2857 29.5238H23.3333C22.702 29.5244 22.0968 29.7754 21.6504 30.2218C21.204 30.6682 20.953 31.2735 20.9524 31.9048V36.1905H17.1429V35.7143C17.1429 34.3251 16.591 32.9927 15.6087 32.0104C14.6263 31.0281 13.294 30.4762 11.9048 30.4762C10.5155 30.4762 9.1832 31.0281 8.20087 32.0104C7.21854 32.9927 6.66667 34.3251 6.66667 35.7143V36.1905H2.85714V19.5238ZM2.85714 39.0476H7.14286C7.77415 39.047 8.37941 38.796 8.8258 38.3496C9.27219 37.9032 9.52323 37.298 9.52381 36.6667V35.7143C9.52381 35.0828 9.77466 34.4772 10.2212 34.0307C10.6677 33.5842 11.2733 33.3333 11.9048 33.3333C12.5362 33.3333 13.1418 33.5842 13.5883 34.0307C14.0349 34.4772 14.2857 35.0828 14.2857 35.7143V36.6667C14.2863 37.298 14.5373 37.9032 14.9837 38.3496C15.4301 38.796 16.0354 39.047 16.6667 39.0476H20.9524V42.8571H20.4762C19.087 42.8571 17.7546 43.409 16.7723 44.3913C15.79 45.3737 15.2381 46.706 15.2381 48.0952C15.2381 49.4845 15.79 50.8168 16.7723 51.7991C17.7546 52.7815 19.087 53.3333 20.4762 53.3333H20.9524V57.1429H4.28571C3.90696 57.1424 3.54384 56.9918 3.27602 56.724C3.0082 56.4562 2.85756 56.093 2.85714 55.7143V39.0476Z" fill="white"/>
<path d="M17.1445 10C17.1445 10.3789 17.295 10.7422 17.563 11.0102C17.8309 11.2781 18.1942 11.4286 18.5731 11.4286C18.952 11.4286 19.3153 11.2781 19.5833 11.0102C19.8512 10.7422 20.0017 10.3789 20.0017 10C20.0037 8.10623 20.757 6.29062 22.0961 4.95152C23.4351 3.61242 25.2508 2.85921 27.1445 2.85714C27.5234 2.85714 27.8868 2.70663 28.1547 2.43872C28.4226 2.17081 28.5731 1.80745 28.5731 1.42857C28.5731 1.04969 28.4226 0.686328 28.1547 0.418419C27.8868 0.15051 27.5234 5.64576e-09 27.1445 0C24.4933 0.00289399 21.9514 1.05739 20.0767 2.93213C18.2019 4.80687 17.1474 7.34872 17.1445 10Z" fill="white"/>
<path d="M49.9989 42.8583C52.6502 42.8554 55.192 41.8009 57.0668 39.9261C58.9415 38.0514 59.996 35.5095 59.9989 32.8583C59.9989 32.4794 59.8484 32.116 59.5805 31.8481C59.3126 31.5802 58.9492 31.4297 58.5703 31.4297C58.1914 31.4297 57.8281 31.5802 57.5602 31.8481C57.2922 32.116 57.1417 32.4794 57.1417 32.8583C57.1397 34.752 56.3865 36.5676 55.0474 37.9067C53.7083 39.2458 51.8927 39.999 49.9989 40.0011C49.62 40.0011 49.2566 40.1516 48.9887 40.4195C48.7208 40.6874 48.5703 41.0508 48.5703 41.4297C48.5703 41.8086 48.7208 42.1719 48.9887 42.4398C49.2566 42.7078 49.62 42.8583 49.9989 42.8583Z" fill="white"/>
</svg>
