<svg width="60" height="60" viewBox="0 0 60 60" fill="none" xmlns="http://www.w3.org/2000/svg">
<path d="M40.9494 30.4781H19.0457C18.6668 30.4781 18.3035 30.3276 18.0356 30.0597C17.7677 29.7918 17.6172 29.4285 17.6172 29.0496C17.6172 28.6707 17.7677 28.3074 18.0356 28.0395C18.3035 27.7716 18.6668 27.6211 19.0457 27.6211H40.9494C41.3283 27.6211 41.6916 27.7716 41.9595 28.0395C42.2274 28.3074 42.3779 28.6707 42.3779 29.0496C42.3779 29.4285 42.2274 29.7918 41.9595 30.0597C41.6916 30.3276 41.3283 30.4781 40.9494 30.4781Z" fill="#0099FF"/>
<path d="M42.379 6.33339C41.4954 6.33446 40.6482 6.68598 40.0233 7.31084C39.3984 7.9357 39.0469 8.78288 39.0459 9.66657C39.0494 10.1911 39.1784 10.7072 39.4219 11.1719L35.9201 15.7321L32.3522 5.69348C32.8193 5.22771 33.1377 4.63381 33.2671 3.98698C33.3965 3.34014 33.331 2.66946 33.079 2.05984C32.827 1.45022 32.3998 0.929087 31.8515 0.562408C31.3031 0.19573 30.6583 0 29.9987 0C29.339 0 28.6942 0.19573 28.1459 0.562408C27.5975 0.929087 27.1703 1.45022 26.9183 2.05984C26.6663 2.66946 26.6008 3.34014 26.7302 3.98698C26.8596 4.63381 27.178 5.22771 27.6451 5.69348L24.0773 15.7321L20.5754 11.1719C20.8189 10.7072 20.9479 10.1911 20.9515 9.66657C20.9546 9.04993 20.7865 8.44452 20.4661 7.91768C20.1456 7.39084 19.6853 6.96322 19.1363 6.68239C18.5873 6.40156 17.9712 6.27852 17.3565 6.32697C16.7417 6.37542 16.1525 6.59345 15.6542 6.95681C15.156 7.32018 14.7684 7.81462 14.5344 8.38516C14.3004 8.9557 14.2293 9.57996 14.329 10.1885C14.4286 10.797 14.6951 11.366 15.0989 11.8321C15.5026 12.2982 16.0277 12.6432 16.6158 12.8287L18.2349 24.4836C18.282 24.8252 18.4512 25.1382 18.7113 25.3648C18.9713 25.5913 19.3046 25.716 19.6494 25.7159H40.3479C40.6928 25.716 41.026 25.5913 41.2861 25.3648C41.5461 25.1382 41.7153 24.8252 41.7624 24.4836L43.3815 12.8287C44.1405 12.5911 44.7891 12.0893 45.2096 11.4143C45.6301 10.7393 45.7946 9.9359 45.6733 9.14995C45.552 8.364 45.1529 7.64759 44.5485 7.1308C43.944 6.614 43.1743 6.33108 42.379 6.33339ZM22.8561 22.8588C22.4794 22.8588 22.1112 22.7471 21.798 22.5379C21.4847 22.3286 21.2406 22.0311 21.0965 21.6831C20.9523 21.335 20.9146 20.9521 20.9881 20.5826C21.0616 20.2131 21.243 19.8737 21.5093 19.6074C21.7757 19.341 22.1151 19.1596 22.4846 19.0861C22.854 19.0126 23.237 19.0503 23.585 19.1945C23.9331 19.3386 24.2305 19.5828 24.4398 19.896C24.6491 20.2092 24.7608 20.5775 24.7608 20.9542C24.7608 21.4593 24.5601 21.9438 24.2029 22.301C23.8458 22.6582 23.3613 22.8588 22.8561 22.8588ZM29.9987 22.8588C29.622 22.8588 29.2537 22.7471 28.9405 22.5379C28.6273 22.3286 28.3831 22.0311 28.239 21.6831C28.0948 21.335 28.0571 20.9521 28.1306 20.5826C28.2041 20.2131 28.3855 19.8737 28.6519 19.6074C28.9182 19.341 29.2576 19.1596 29.6271 19.0861C29.9966 19.0126 30.3795 19.0503 30.7276 19.1945C31.0756 19.3386 31.3731 19.5828 31.5823 19.896C31.7916 20.2092 31.9033 20.5775 31.9033 20.9542C31.9033 21.4593 31.7027 21.9438 31.3455 22.301C30.9883 22.6582 30.5038 22.8588 29.9987 22.8588ZM37.1412 22.8588C36.7645 22.8588 36.3962 22.7471 36.083 22.5379C35.7698 22.3286 35.5257 22.0311 35.3815 21.6831C35.2373 21.335 35.1996 20.9521 35.2731 20.5826C35.3466 20.2131 35.528 19.8737 35.7944 19.6074C36.0608 19.341 36.4001 19.1596 36.7696 19.0861C37.1391 19.0126 37.522 19.0503 37.8701 19.1945C38.2181 19.3386 38.5156 19.5828 38.7249 19.896C38.9342 20.2092 39.0459 20.5775 39.0459 20.9542C39.0459 21.4593 38.8452 21.9438 38.488 22.301C38.1308 22.6582 37.6463 22.8588 37.1412 22.8588Z" fill="#0099FF"/>
<path d="M53.8972 47.1808C55.1574 46.1749 56.0739 44.8023 56.5198 43.2527C56.9656 41.7032 56.9189 40.0534 56.3861 38.5316C55.8532 37.0098 54.8605 35.6912 53.5454 34.7583C52.2303 33.8253 50.6577 33.3242 49.0453 33.3242C47.4329 33.3242 45.8604 33.8253 44.5452 34.7583C43.2301 35.6912 42.2375 37.0098 41.7046 38.5316C41.1717 40.0534 41.125 41.7032 41.5709 43.2527C42.0168 44.8023 42.9332 46.1749 44.1934 47.1808C42.2318 48.1554 40.6054 49.6928 39.522 51.5964C38.4385 49.6928 36.8121 48.1554 34.8505 47.1808C36.1107 46.1749 37.0271 44.8023 37.473 43.2527C37.9189 41.7032 37.8722 40.0534 37.3393 38.5316C36.8065 37.0098 35.8138 35.6912 34.4987 34.7583C33.1836 33.8253 31.611 33.3242 29.9986 33.3242C28.3862 33.3242 26.8136 33.8253 25.4985 34.7583C24.1834 35.6912 23.1907 37.0098 22.6579 38.5316C22.125 40.0534 22.0783 41.7032 22.5242 43.2527C22.97 44.8023 23.8865 46.1749 25.1467 47.1808C23.1851 48.1554 21.5587 49.6928 20.4752 51.5964C19.3918 49.6928 17.7654 48.1554 15.8038 47.1808C17.064 46.1749 17.9804 44.8023 18.4263 43.2527C18.8722 41.7032 18.8255 40.0534 18.2926 38.5316C17.7597 37.0098 16.7671 35.6912 15.452 34.7583C14.1368 33.8253 12.5643 33.3242 10.9519 33.3242C9.33946 33.3242 7.7669 33.8253 6.45179 34.7583C5.13667 35.6912 4.144 37.0098 3.61114 38.5316C3.07827 40.0534 3.03155 41.7032 3.47743 43.2527C3.92332 44.8023 4.83976 46.1749 6.09997 47.1808C4.27122 48.0848 2.73124 49.4816 1.6535 51.2137C0.575766 52.9458 0.0030956 54.9444 0 56.9844V58.572C9.84581e-05 58.9508 0.150633 59.3141 0.418508 59.582C0.686383 59.8498 1.04967 60.0004 1.4285 60.0005H58.5687C58.9475 60.0004 59.3108 59.8498 59.5787 59.582C59.8466 59.3141 59.9971 58.9508 59.9972 58.572V56.9844C59.9941 54.9444 59.4214 52.9458 58.3437 51.2137C57.266 49.4816 55.726 48.0848 53.8972 47.1808ZM6.03115 41.1128C6.03096 40.1395 6.31939 39.188 6.85997 38.3787C7.40056 37.5694 8.169 36.9385 9.06813 36.5659C9.96726 36.1934 10.9567 36.0958 11.9113 36.2855C12.8659 36.4753 13.7427 36.9439 14.431 37.632C15.1193 38.3202 15.588 39.1969 15.778 40.1515C15.9679 41.106 15.8705 42.0955 15.4981 42.9947C15.1257 43.8939 14.495 44.6625 13.6858 45.2032C12.8765 45.7439 11.9251 46.0325 10.9519 46.0325C9.64747 46.0309 8.39695 45.5121 7.47452 44.5899C6.55208 43.6676 6.03302 42.4172 6.03115 41.1128ZM19.0467 57.1435H2.85701V56.9844C2.85701 54.8375 3.70986 52.7786 5.22794 51.2605C6.74602 49.7424 8.80498 48.8896 10.9519 48.8896C13.0988 48.8896 15.1577 49.7424 16.6758 51.2605C18.1939 52.7786 19.0467 54.8375 19.0467 56.9844V57.1435ZM25.0779 41.1128C25.0777 40.1395 25.3661 39.188 25.9067 38.3787C26.4473 37.5694 27.2157 36.9385 28.1149 36.5659C29.014 36.1934 30.0034 36.0958 30.958 36.2855C31.9126 36.4753 32.7895 36.9439 33.4777 37.632C34.166 38.3202 34.6348 39.1969 34.8247 40.1515C35.0146 41.106 34.9173 42.0955 34.5448 42.9947C34.1724 43.8939 33.5417 44.6625 32.7325 45.2032C31.9233 45.7439 30.9719 46.0325 29.9986 46.0325C28.6942 46.0309 27.4437 45.5121 26.5212 44.5899C25.5988 43.6676 25.0797 42.4172 25.0779 41.1128ZM38.0935 57.1435H21.9037V56.9844C21.9037 54.8375 22.7566 52.7786 24.2747 51.2605C25.7927 49.7424 27.8517 48.8896 29.9986 48.8896C32.1455 48.8896 34.2044 49.7424 35.7225 51.2605C37.2406 52.7786 38.0935 54.8375 38.0935 56.9844V57.1435ZM44.1246 41.1128C44.1244 40.1395 44.4128 39.188 44.9534 38.3787C45.494 37.5694 46.2625 36.9385 47.1616 36.5659C48.0607 36.1934 49.0501 36.0958 50.0047 36.2855C50.9593 36.4753 51.8362 36.9439 52.5245 37.632C53.2127 38.3202 53.6815 39.1969 53.8714 40.1515C54.0614 41.106 53.964 42.0955 53.5916 42.9947C53.2192 43.8939 52.5885 44.6625 51.7792 45.2032C50.97 45.7439 50.0186 46.0325 49.0453 46.0325C47.7409 46.0309 46.4904 45.5121 45.568 44.5899C44.6455 43.6676 44.1265 42.4172 44.1246 41.1128ZM57.1402 57.1435H40.9505V56.9844C40.9505 54.8375 41.8033 52.7786 43.3214 51.2605C44.8395 49.7424 46.8984 48.8896 49.0453 48.8896C51.1922 48.8896 53.2512 49.7424 54.7693 51.2605C56.2873 52.7786 57.1402 54.8375 57.1402 56.9844V57.1435Z" fill="white"/>
</svg>
