<svg width="56" height="56" viewBox="0 0 56 56" fill="none" xmlns="http://www.w3.org/2000/svg">
<g clip-path="url(#clip0_78_15908)">
<path d="M42.3781 2.47704H7.2403C4.8824 2.47704 2.96875 4.40778 2.96875 6.74859V45.5001C2.96875 47.858 4.89949 49.7716 7.2403 49.7716H30.3921C30.1358 38.2555 34.0656 15.9068 42.3866 2.44287L42.3781 2.47704Z" fill="#0F80CC"/>
<path d="M41.0966 3.7334H7.24032C5.56587 3.7334 4.20752 5.10029 4.20752 6.7662V42.6899C11.8792 39.7426 23.3868 37.2053 31.3489 37.3249C33.8036 25.9113 37.0553 14.6861 41.0966 3.7334Z" fill="url(#paint0_linear_78_15908)"/>
<path d="M50.5794 1.21346C48.1703 -0.922311 45.2571 -0.0680019 42.378 2.47784L41.0966 3.72513C36.1758 8.93642 31.6992 18.6072 30.1956 25.997C30.7313 27.1673 31.1546 28.3859 31.46 29.6363L31.6479 30.4907L31.8359 31.362C31.8359 31.362 31.7931 31.1912 31.6137 30.6786L31.4941 30.3369C31.4701 30.2736 31.4445 30.2109 31.4173 30.1489C31.0926 29.4057 30.2212 27.8252 29.8197 27.1418C29.5089 28.0502 29.2155 28.9644 28.9398 29.8841C30.0674 31.9515 30.7509 35.4884 30.7509 35.4884C30.7509 35.4884 30.6911 35.2577 30.4092 34.4632C30.1529 33.7541 28.9056 31.5585 28.6151 31.046C28.1025 32.9254 27.906 34.1898 28.0854 34.4974C28.4272 35.0954 28.7689 36.206 29.0679 37.2653C29.5293 39.144 29.9055 41.0425 30.1956 42.955L30.2383 43.4847C30.1497 45.6211 30.1925 47.7609 30.3664 49.892C30.5886 52.566 31.0072 54.8641 31.5369 56.0943L31.8957 55.8978C31.1268 53.4716 30.8021 50.3021 30.9388 46.6371C31.1524 41.0414 32.4339 34.2923 34.8174 27.2614C38.8583 16.5569 44.4284 8.03085 49.5372 3.96434C44.8812 8.16754 38.5849 21.7682 36.7054 26.8C34.5953 32.4385 33.1002 37.7352 32.1947 42.8013C33.7495 38.0513 38.7729 36.001 38.7729 36.001C38.7729 36.001 41.2504 32.9596 44.1208 28.6112L38.6105 30.0806L36.8336 30.8665C36.8336 30.8665 41.3614 28.1071 45.2656 26.8513C50.6221 18.4193 56.4571 6.43329 50.5794 1.20492" fill="#003B57"/>
</g>
<defs>
<linearGradient id="paint0_linear_78_15908" x1="25.4884" y1="4.52791" x2="25.4884" y2="40.5285" gradientUnits="userSpaceOnUse">
<stop stop-color="#97D9F6"/>
<stop offset="0.92024" stop-color="#0F80CC"/>
<stop offset="1" stop-color="#0F80CC"/>
</linearGradient>
<clipPath id="clip0_78_15908">
<rect width="56" height="56" fill="white"/>
</clipPath>
</defs>
</svg>
