<svg width="56" height="56" viewBox="0 0 56 56" fill="none" xmlns="http://www.w3.org/2000/svg">
<path d="M28 11.1562C20.5333 11.1562 15.8667 14.8896 14 22.3562C16.8 18.6229 20.0667 17.2229 23.8 18.1562C25.9301 18.6888 27.4525 20.2341 29.1377 21.9447C31.883 24.7312 35.0603 27.9563 42 27.9563C49.4667 27.9563 54.1333 24.2229 56 16.7562C53.2 20.4896 49.9333 21.8896 46.2 20.9563C44.0699 20.4237 42.5475 18.8784 40.8623 17.1679C38.117 14.3813 34.9397 11.1562 28 11.1562ZM14 27.9563C6.53333 27.9563 1.86667 31.6896 0 39.1562C2.8 35.4229 6.06667 34.0229 9.8 34.9563C11.9301 35.4888 13.4525 37.0341 15.1377 38.7446C17.883 41.5312 21.0603 44.7563 28 44.7563C35.4667 44.7563 40.1333 41.0229 42 33.5562C39.2 37.2896 35.9333 38.6896 32.2 37.7563C30.0699 37.2237 28.5475 35.6784 26.8623 33.9678C24.117 31.1813 20.9397 27.9563 14 27.9563Z" fill="url(#paint0_linear_78_15856)"/>
<path d="M28 11.1562C20.5333 11.1562 15.8667 14.8896 14 22.3562C16.8 18.6229 20.0667 17.2229 23.8 18.1562C25.9301 18.6888 27.4525 20.2341 29.1377 21.9447C31.883 24.7312 35.0603 27.9563 42 27.9563C49.4667 27.9563 54.1333 24.2229 56 16.7562C53.2 20.4896 49.9333 21.8896 46.2 20.9563C44.0699 20.4237 42.5475 18.8784 40.8623 17.1679C38.117 14.3813 34.9397 11.1562 28 11.1562ZM14 27.9563C6.53333 27.9563 1.86667 31.6896 0 39.1562C2.8 35.4229 6.06667 34.0229 9.8 34.9563C11.9301 35.4888 13.4525 37.0341 15.1377 38.7446C17.883 41.5312 21.0603 44.7563 28 44.7563C35.4667 44.7563 40.1333 41.0229 42 33.5562C39.2 37.2896 35.9333 38.6896 32.2 37.7563C30.0699 37.2237 28.5475 35.6784 26.8623 33.9678C24.117 31.1813 20.9397 27.9563 14 27.9563Z" fill="url(#paint1_linear_78_15856)"/>
<defs>
<linearGradient id="paint0_linear_78_15856" x1="-1.55556" y1="21.9083" x2="46.8096" y2="49.7945" gradientUnits="userSpaceOnUse">
<stop stop-color="#2298BD"/>
<stop offset="1" stop-color="#0ED7B5"/>
</linearGradient>
<linearGradient id="paint1_linear_78_15856" x1="-1.55556" y1="21.9083" x2="46.8096" y2="49.7945" gradientUnits="userSpaceOnUse">
<stop stop-color="#2298BD"/>
<stop offset="1" stop-color="#0ED7B5"/>
</linearGradient>
</defs>
</svg>
